<svg xmlns="http://www.w3.org/2000/svg" viewBox="0 0 64 64" id="Youtube">
  <g fill="#000000" class="color000000 svgShape">
    <path fill="#b66600" d="M59.229 13.746c-18.153-6.412-36.3 9.948-54.458 1.126v39.486c18.153 8.822 36.305-7.539 54.458-1.127Z" class="colorc2281a svgShape"></path>
    <path d="M59.23 28.87v24.36c-6.23-2.2-12.45-1.72-18.68-.49-2.22.43-4.43.96-6.65 1.5-7.98 1.93-15.95 3.96-23.93 2a35.272 35.272 0 0 1 49.26-27.37Z" opacity=".2" style="mix-blend-mode:overlay" fill="#000000" class="color000000 svgShape"></path>
    <path fill="#3c3c3b" d="M32.753 53.268C24.4 55.534 14.945 58.1 5.771 53.4V11.646c7.444 3.424 15.086 2.391 22.275.719a1 1 0 0 0-.453-1.948c-7.279 1.693-15.021 2.712-22.344-1.269-.018-.009-.038-.013-.057-.021a.777.777 0 0 0-.08-.031 1 1 0 0 0-.312-.065h-.035a1.006 1.006 0 0 0-.341.069c-.028.011-.055.022-.082.035s-.055.02-.081.035a1.018 1.018 0 0 0-.178.14c-.007.007-.015.011-.022.017a1.015 1.015 0 0 0-.188.279 1.063 1.063 0 0 0-.032.078.988.988 0 0 0-.07.346V54a.978.978 0 0 0 .07.345c.011.03.023.056.036.084a.994.994 0 0 0 .171.254c.008.009.014.02.022.028a.976.976 0 0 0 .224.167 26.263 26.263 0 0 0 12.838 3.177c5.618 0 11.075-1.479 16.144-2.854a1 1 0 0 0-.523-1.93zm3.275 1.149a1 1 0 0 0 .263-.036l.254-.069c.021 0 .044-.01.066-.016a.923.923 0 0 0 .645-.593.98.98 0 0 0 .041-.634.874.874 0 0 0-.872-.706 1.043 1.043 0 0 0-.377.014 1.89 1.89 0 0 0-.1.032c-.059.012-.12.027-.183.044a1 1 0 0 0 .26 1.966zm5.912-3.464-.656.134c-.78.159-1.02.208-2.142.494a1 1 0 0 0 .246 1.969 1.009 1.009 0 0 0 .248-.031c1.072-.273 1.3-.32 2.047-.472l.662-.135a1 1 0 0 0-.405-1.959zm17.289-39.739a1 1 0 0 0-1 1v36.572a1 1 0 0 0 2 0V12.214a1 1 0 0 0-1-1z" class="color3c3c3b svgShape"></path>
    <path fill="#ffffff" d="M46.629 27.375a3.834 3.834 0 0 0-2.7-2.717C41.548 24.015 32 24.015 32 24.015s-9.548 0-11.929.643a3.834 3.834 0 0 0-2.7 2.717 40.236 40.236 0 0 0-.638 7.4 40.245 40.245 0 0 0 .638 7.4 3.834 3.834 0 0 0 2.7 2.717c2.381.643 11.929.643 11.929.643s9.548 0 11.929-.643a3.834 3.834 0 0 0 2.7-2.717 40.245 40.245 0 0 0 .638-7.4 40.236 40.236 0 0 0-.638-7.4ZM28.877 39.311v-9.079l7.981 4.54Z" class="colorffffff svgShape"></path>
  </g>
</svg>
